<?xml version="1.0" standalone="no"?>
<!DOCTYPE svg PUBLIC "-//W3C//DTD SVG 1.1//EN" 
  "http://www.w3.org/Graphics/SVG/1.1/DTD/svg11.dtd">
 <svg width="594mm" height="420mm"
   xmlns:dc="http://purl.org/dc/elements/1.1/" 
   xmlns:cc="http://creativecommons.org/ns#"
   xmlns:rdf="http://www.w3.org/1999/02/22-rdf-syntax-ns#"
   xmlns:svg="http://www.w3.org/2000/svg"
   xmlns:sodipodi="http://sodipodi.sourceforge.net/DTD/sodipodi-0.dtd"
   xmlns:inkscape="http://www.inkscape.org/namespaces/inkscape"
   xmlns="http://www.w3.org/2000/svg"
 version="1.1" viewBox="0 0 594 420">
<sodipodi:namedview      id="base"      pagecolor="#ffffff"      bordercolor="#666666"      borderopacity="1.0"      inkscape:pageopacity="0.0"      inkscape:pageshadow="2"     inkscape:zoom="0.35"     inkscape:cx="375"     inkscape:cy="520"     inkscape:document-units="mm"     inkscape:current-layer="layer1"     showgrid="false"     units="mm"     inkscape:window-width="504"     inkscape:window-height="441"     inkscape:window-x="320"     inkscape:window-y="25"     inkscape:window-maximized="0" />
<g transform="scale(1, -1) translate(0,-420)"><g><!-- back - __border -->
<path d=" M -33.02,-10.00 M -33.00,-10.00 L -25.28,-10.00 L -25.28,-7.00 L -20.87,-7.00 L -20.87,-10.00 L -16.05,-10.00 L -16.05,-7.00 L -11.64,-7.00 L -11.64,-10.00 L -6.82,-10.00 L -6.82,-7.00 L -2.41,-7.00 L -2.41,-10.00 L 2.41,-10.00 L 2.41,-7.00 L 6.82,-7.00 L 6.82,-10.00 L 11.64,-10.00 L 11.64,-7.00 L 16.05,-7.00 L 16.05,-10.00 L 20.87,-10.00 L 20.87,-7.00 L 25.28,-7.00 L 25.28,-10.00 L 33.00,-10.00 L 33.00,-1.90 L 30.00,-1.90 L 30.00,2.90 L 33.00,2.90 L 33.00,11.00 L 25.28,11.00 L 25.28,8.00 L 20.87,8.00 L 20.87,11.00 L 16.05,11.00 L 16.05,8.00 L 11.64,8.00 L 11.64,11.00 L 6.82,11.00 L 6.82,8.00 L 2.41,8.00 L 2.41,11.00 L -2.41,11.00 L -2.41,8.00 L -6.82,8.00 L -6.82,11.00 L -11.64,11.00 L -11.64,8.00 L -16.05,8.00 L -16.05,11.00 L -20.87,11.00 L -20.87,8.00 L -25.28,8.00 L -25.28,11.00 L -33.00,11.00 L -33.00,2.90 L -30.00,2.90 L -30.00,-1.90 L -33.00,-1.90 L -33.00,-10.00"  style='stroke-width:0.1px;opacity:1' fill='none' stroke='black'/>
<text transform='scale(1,-1)' text-anchor='middle' x='0' y='0'>back</text></g><g><!-- top - __border -->
<path d=" M -33.02,-12.00 M -33.00,-12.00 L -25.48,-12.00 L -25.48,-15.00 L -20.67,-15.00 L -20.67,-12.00 L -16.25,-12.00 L -16.25,-15.00 L -11.44,-15.00 L -11.44,-12.00 L -7.02,-12.00 L -7.02,-15.00 L -2.21,-15.00 L -2.21,-12.00 L 2.21,-12.00 L 2.21,-15.00 L 7.02,-15.00 L 7.02,-12.00 L 11.44,-12.00 L 11.44,-15.00 L 16.25,-15.00 L 16.25,-12.00 L 20.67,-12.00 L 20.67,-15.00 L 25.48,-15.00 L 25.48,-12.00 L 33.00,-12.00 L 33.00,-6.90 L 30.00,-6.90 L 30.00,-2.10 L 33.00,-2.10 L 33.00,3.10 L 30.00,3.10 L 30.00,7.90 L 33.00,7.90 L 33.00,13.00 L 25.48,13.00 L 25.48,16.00 L 20.67,16.00 L 20.67,13.00 L 16.25,13.00 L 16.25,16.00 L 11.44,16.00 L 11.44,13.00 L 7.02,13.00 L 7.02,16.00 L 2.21,16.00 L 2.21,13.00 L -2.21,13.00 L -2.21,16.00 L -7.02,16.00 L -7.02,13.00 L -11.44,13.00 L -11.44,16.00 L -16.25,16.00 L -16.25,13.00 L -20.67,13.00 L -20.67,16.00 L -25.48,16.00 L -25.48,13.00 L -33.00,13.00 L -33.00,7.90 L -30.00,7.90 L -30.00,3.10 L -33.00,3.10 L -33.00,-2.10 L -30.00,-2.10 L -30.00,-6.90 L -33.00,-6.90 L -33.00,-12.00"  style='stroke-width:0.1px;opacity:1' fill='none' stroke='black'/>
<text transform='scale(1,-1)' text-anchor='middle' x='0' y='0'>top</text></g><g><!-- bottom - __border -->
<path d=" M -33.02,-12.00 M -33.00,-12.00 L -25.48,-12.00 L -25.48,-15.00 L -20.67,-15.00 L -20.67,-12.00 L -16.25,-12.00 L -16.25,-15.00 L -11.44,-15.00 L -11.44,-12.00 L -7.02,-12.00 L -7.02,-15.00 L -2.21,-15.00 L -2.21,-12.00 L 2.21,-12.00 L 2.21,-15.00 L 7.02,-15.00 L 7.02,-12.00 L 11.44,-12.00 L 11.44,-15.00 L 16.25,-15.00 L 16.25,-12.00 L 20.67,-12.00 L 20.67,-15.00 L 25.48,-15.00 L 25.48,-12.00 L 33.00,-12.00 L 33.00,-6.90 L 30.00,-6.90 L 30.00,-2.10 L 33.00,-2.10 L 33.00,3.10 L 30.00,3.10 L 30.00,7.90 L 33.00,7.90 L 33.00,13.00 L 25.48,13.00 L 25.48,16.00 L 20.67,16.00 L 20.67,13.00 L 16.25,13.00 L 16.25,16.00 L 11.44,16.00 L 11.44,13.00 L 7.02,13.00 L 7.02,16.00 L 2.21,16.00 L 2.21,13.00 L -2.21,13.00 L -2.21,16.00 L -7.02,16.00 L -7.02,13.00 L -11.44,13.00 L -11.44,16.00 L -16.25,16.00 L -16.25,13.00 L -20.67,13.00 L -20.67,16.00 L -25.48,16.00 L -25.48,13.00 L -33.00,13.00 L -33.00,7.90 L -30.00,7.90 L -30.00,3.10 L -33.00,3.10 L -33.00,-2.10 L -30.00,-2.10 L -30.00,-6.90 L -33.00,-6.90 L -33.00,-12.00"  style='stroke-width:0.1px;opacity:1' fill='none' stroke='black'/>
<text transform='scale(1,-1)' text-anchor='middle' x='0' y='0'>bottom</text></g><g><!-- side - __border -->
<path d=" M -12.02,-7.00 M -12.00,-7.00 L -7.10,-7.00 L -7.10,-10.00 L -1.90,-10.00 L -1.90,-7.00 L 2.90,-7.00 L 2.90,-10.00 L 8.10,-10.00 L 8.10,-7.00 L 13.00,-7.00 L 13.00,-2.10 L 16.00,-2.10 L 16.00,3.10 L 13.00,3.10 L 13.00,8.00 L 8.10,8.00 L 8.10,11.00 L 2.90,11.00 L 2.90,8.00 L -1.90,8.00 L -1.90,11.00 L -7.10,11.00 L -7.10,8.00 L -12.00,8.00 L -12.00,3.10 L -15.00,3.10 L -15.00,-2.10 L -12.00,-2.10 L -12.00,-7.00"  style='stroke-width:0.1px;opacity:1' fill='none' stroke='black'/>
<text transform='scale(1,-1)' text-anchor='middle' x='0' y='0'>side</text></g></g>
</svg>
